<svg width="102" height="15" viewBox="0 0 102 15" fill="none" xmlns="http://www.w3.org/2000/svg">
<path d="M12.621 5.30993L8.7111 4.72689L6.96327 1.09119C6.91553 0.991648 6.837 0.911066 6.73998 0.862084C6.49667 0.73884 6.201 0.841543 6.07935 1.09119L4.33152 4.72689L0.421611 5.30993C0.313816 5.32573 0.215259 5.37788 0.139802 5.45688C0.048579 5.55308 -0.00168917 5.68251 4.3343e-05 5.81672C0.00177586 5.95093 0.0553674 6.07895 0.149042 6.17264L2.97791 9.00252L2.30958 12.9985C2.2939 13.0914 2.30393 13.187 2.33851 13.2744C2.3731 13.3618 2.43086 13.4376 2.50525 13.493C2.57964 13.5484 2.66768 13.5814 2.75939 13.5881C2.8511 13.5948 2.9428 13.575 3.02411 13.5309L6.52131 11.6444L10.0185 13.5309C10.114 13.5831 10.2249 13.6005 10.3311 13.5815C10.5991 13.5341 10.7792 13.2734 10.733 12.9985L10.0647 9.00252L12.8936 6.17264C12.9706 6.09522 13.0214 5.9941 13.0368 5.88349C13.0784 5.60698 12.8905 5.35102 12.621 5.30993Z" fill="#FFB742"/>
<path d="M34.621 5.54345L30.7111 4.96041L28.9633 1.32471C28.9155 1.22517 28.837 1.14459 28.74 1.0956C28.4967 0.97236 28.201 1.07506 28.0793 1.32471L26.3315 4.96041L22.4216 5.54345C22.3138 5.55925 22.2153 5.6114 22.1398 5.6904C22.0486 5.7866 21.9983 5.91603 22 6.05024C22.0018 6.18446 22.0554 6.31247 22.149 6.40616L24.9779 9.23604L24.3096 13.232C24.2939 13.3249 24.3039 13.4205 24.3385 13.508C24.3731 13.5954 24.4309 13.6711 24.5053 13.7265C24.5796 13.7819 24.6677 13.8149 24.7594 13.8216C24.8511 13.8283 24.9428 13.8085 25.0241 13.7645L28.5213 11.8779L32.0185 13.7645C32.114 13.8166 32.2249 13.834 32.3311 13.815C32.5991 13.7676 32.7792 13.5069 32.733 13.232L32.0647 9.23604L34.8936 6.40616C34.9706 6.32874 35.0214 6.22762 35.0368 6.11701C35.0784 5.8405 34.8905 5.58454 34.621 5.54345Z" fill="#FFB742"/>
<path d="M56.621 5.77685L52.7111 5.19381L50.9633 1.55811C50.9155 1.45857 50.837 1.37798 50.74 1.329C50.4967 1.20576 50.201 1.30846 50.0793 1.55811L48.3315 5.19381L44.4216 5.77685C44.3138 5.79265 44.2153 5.84479 44.1398 5.9238C44.0486 6.02 43.9983 6.14943 44 6.28364C44.0018 6.41785 44.0554 6.54587 44.149 6.63956L46.9779 9.46944L46.3096 13.4654C46.2939 13.5583 46.3039 13.6539 46.3385 13.7414C46.3731 13.8288 46.4309 13.9045 46.5053 13.9599C46.5796 14.0153 46.6677 14.0483 46.7594 14.055C46.8511 14.0617 46.9428 14.0419 47.0241 13.9979L50.5213 12.1113L54.0185 13.9979C54.114 14.05 54.2249 14.0674 54.3311 14.0484C54.5991 14.001 54.7792 13.7403 54.733 13.4654L54.0647 9.46944L56.8936 6.63956C56.9706 6.56214 57.0214 6.46102 57.0368 6.35041C57.0784 6.0739 56.8905 5.81793 56.621 5.77685Z" fill="#FFB742"/>
<path d="M78.621 6.01037L74.7111 5.42733L72.9633 1.79163C72.9155 1.69209 72.837 1.61151 72.74 1.56252C72.4967 1.43928 72.201 1.54198 72.0793 1.79163L70.3315 5.42733L66.4216 6.01037C66.3138 6.02617 66.2153 6.07832 66.1398 6.15732C66.0486 6.25352 65.9983 6.38295 66 6.51716C66.0018 6.65137 66.0554 6.77939 66.149 6.87308L68.9779 9.70296L68.3096 13.6989C68.2939 13.7919 68.3039 13.8875 68.3385 13.9749C68.3731 14.0623 68.4309 14.138 68.5053 14.1934C68.5796 14.2489 68.6677 14.2818 68.7594 14.2885C68.8511 14.2952 68.9428 14.2754 69.0241 14.2314L72.5213 12.3448L76.0185 14.2314C76.114 14.2835 76.2249 14.3009 76.3311 14.2819C76.5991 14.2345 76.7792 13.9738 76.733 13.6989L76.0647 9.70296L78.8936 6.87308C78.9706 6.79566 79.0214 6.69454 79.0368 6.58393C79.0784 6.30742 78.8905 6.05145 78.621 6.01037Z" fill="#FFB742"/>
<path d="M100.621 6.24377L96.7111 5.66073L94.9633 2.02503C94.9155 1.92549 94.837 1.8449 94.74 1.79592C94.4967 1.67268 94.201 1.77538 94.0793 2.02503L92.3315 5.66073L88.4216 6.24377C88.3138 6.25957 88.2153 6.31171 88.1398 6.39072C88.0486 6.48692 87.9983 6.61635 88 6.75056C88.0018 6.88477 88.0554 7.01279 88.149 7.10648L90.9779 9.93635L90.3096 13.9323C90.2939 14.0253 90.3039 14.1209 90.3385 14.2083C90.3731 14.2957 90.4309 14.3714 90.5053 14.4268C90.5796 14.4823 90.6677 14.5152 90.7594 14.5219C90.8511 14.5286 90.9428 14.5088 91.0241 14.4648L94.5213 12.5782L98.0185 14.4648C98.114 14.5169 98.2249 14.5343 98.3311 14.5153C98.5991 14.4679 98.7792 14.2072 98.733 13.9323L98.0647 9.93635L100.894 7.10648C100.971 7.02906 101.021 6.92793 101.037 6.81733C101.078 6.54082 100.89 6.28485 100.621 6.24377Z" fill="#FFB742"/>
</svg>
